# xmcd CD database file
#
# Track frame offsets:
#	150
#	18567
#	50135
#	100737
#	145110
#	171050
#	192131
#	219053
#	252675
#
# Disc length: 3735 seconds
#
# Revision: 0
# Processed by: cddbd v1.5PL3 Copyright (c) Steve Scherf et al.
# Submitted via: CDex 1.50
#
DISCID=7b0e9509
DTITLE=Pat Metheny - Artist In Residence Project [CD2]
DYEAR=2004
DGENRE=Jazz
TTITLE0=Better Days Ahead
TTITLE1=(It's Just) Talk
TTITLE2=80-81
TTITLE3=Two Folk Songs (1st)
TTITLE4=Anthropology
TTITLE5=Silhouette
TTITLE6=(Cross The) Heartland
TTITLE7=The Mixolydian Highlander
TTITLE8=Foot
EXTD=YEAR: 2004
EXTT0=
EXTT1=
EXTT2=
EXTT3=
EXTT4=
EXTT5=
EXTT6=
EXTT7=
EXTT8=
PLAYORDER=
